D:\school\WTK\thesis\model\3dpredictsim\Results\PredSim_adaptations\Pog_s1_tmt_bCst_d02_k800_ig24_pas_GRF.mot
nRows=30
nColumns=19

name D:\school\WTK\thesis\model\3dpredictsim\Results\PredSim_adaptations\Pog_s1_tmt_bCst_d02_k800_ig24_pas_GRF.mot
datacolumns 19
datarows 30
range 0.0000000000 0.3211879098
endheader
time 	ground_force_vx	ground_force_vy	ground_force_vz	ground_force_px	ground_force_py	ground_force_pz	1_ground_force_vx	1_ground_force_vy	1_ground_force_vz	1_ground_force_px	1_ground_force_py	1_ground_force_pz	ground_torque_x	ground_torque_y	ground_torque_z	1_ground_torque_x	1_ground_torque_y	1_ground_torque_z
        0.0000000000	      -97.5852758786	       91.3601198193	       43.1594702217	        0.1687939147	        0.0000000000	        0.0377012612	       94.6529080118	      471.7134649793	       -5.0091514440	       -0.3200645779	        0.0000000000	       -0.0348190356	        0.0000000000	        0.0000000000	        0.0000000000	        0.0000000000	        0.0000000000	        0.0000000000	
        0.0110754452	      -91.0525837169	      192.0967133754	       77.2172284603	        0.1749144139	        0.0000000000	        0.0358908614	       76.3511863963	      388.3002174341	      -10.3944713925	       -0.3159599811	        0.0000000000	       -0.0336164889	        0.0000000000	        0.0000000000	        0.0000000000	        0.0000000000	        0.0000000000	        0.0000000000	
        0.0221508903	      -46.9877109650	      349.2118170948	       17.3380043875	        0.1788795230	        0.0000000000	        0.0340788757	       55.9567872214	      300.6984307540	       -7.7083556780	       -0.3095888218	        0.0000000000	       -0.0311186544	        0.0000000000	        0.0000000000	        0.0000000000	        0.0000000000	        0.0000000000	        0.0000000000	
        0.0332263355	      -50.1355827244	      513.3952935198	       -1.7680378160	        0.1838864760	        0.0000000000	        0.0349333358	       27.7168601625	      199.0124849011	       -6.1594341194	       -0.2971848808	        0.0000000000	       -0.0255171315	        0.0000000000	        0.0000000000	        0.0000000000	        0.0000000000	        0.0000000000	        0.0000000000	
        0.0443017807	      -84.5654777114	      690.8745407471	       -9.2093472319	        0.1919391454	        0.0000000000	        0.0373831844	        8.1674902840	      138.0446692087	      -10.5090202278	       -0.2840491669	        0.0000000000	       -0.0187426377	        0.0000000000	        0.0000000000	        0.0000000000	        0.0000000000	        0.0000000000	        0.0000000000	
        0.0553772258	     -106.8220677939	      803.5178614375	      -12.4982891276	        0.1976124531	        0.0000000000	        0.0390075122	        1.6611566504	      108.6412142139	      -11.6824244694	       -0.2841681679	        0.0000000000	       -0.0190469744	        0.0000000000	        0.0000000000	        0.0000000000	        0.0000000000	        0.0000000000	        0.0000000000	
        0.0664526710	     -111.4736628169	      844.3604257481	      -13.5566145850	        0.2015181221	        0.0000000000	        0.0399900684	       -2.1351544145	       71.1634144529	      -10.7589402975	       -0.2836805853	        0.0000000000	       -0.0191008597	        0.0000000000	        0.0000000000	        0.0000000000	        0.0000000000	        0.0000000000	        0.0000000000	
        0.0775281162	     -106.7592073691	      840.8488296610	      -13.7966578393	        0.2045767258	        0.0000000000	        0.0405733698	       -8.0632127200	       29.4711210497	       -5.7580794931	       -0.2839922986	        0.0000000000	       -0.0189148641	        0.0000000000	        0.0000000000	        0.0000000000	        0.0000000000	        0.0000000000	        0.0000000000	
        0.0886035613	      -97.3772300079	      822.1400407278	      -14.1312844501	        0.2076393138	        0.0000000000	        0.0408821773	        0.0965760258	       -0.0960824784	        0.0022613093	        0.0000000000	        0.0000000000	        0.0000000000	        0.0000000000	        0.0000000000	        0.0000000000	        0.0000000000	        0.0000000000	        0.0000000000	
        0.0996790065	      -85.2380028466	      792.8490909759	      -14.8952680516	        0.2108663797	        0.0000000000	        0.0410165333	        0.0001046422	       -0.0000853967	       -0.0000058796	        0.0000000000	        0.0000000000	        0.0000000000	        0.0000000000	        0.0000000000	        0.0000000000	        0.0000000000	        0.0000000000	        0.0000000000	
        0.1107544517	      -73.5311973109	      758.3264132341	      -15.1724115787	        0.2144493696	        0.0000000000	        0.0410744732	        0.0000396940	       -0.0000281642	       -0.0000029332	        0.0000000000	        0.0000000000	        0.0000000000	        0.0000000000	        0.0000000000	        0.0000000000	        0.0000000000	        0.0000000000	        0.0000000000	
        0.1218298968	      -63.8960263466	      727.2008026650	      -15.2860643485	        0.2187398800	        0.0000000000	        0.0410086662	        0.0003770968	       -0.0002397412	       -0.0000310913	        0.0000000000	        0.0000000000	        0.0000000000	        0.0000000000	        0.0000000000	        0.0000000000	        0.0000000000	        0.0000000000	        0.0000000000	
        0.1329053420	      -54.5187649504	      697.2114071674	      -15.8319949455	        0.2231589973	        0.0000000000	        0.0409114970	        0.0051868623	       -0.0030204002	       -0.0004529437	        0.0000000000	        0.0000000000	        0.0000000000	        0.0000000000	        0.0000000000	        0.0000000000	        0.0000000000	        0.0000000000	        0.0000000000	
        0.1439807872	      -45.2644211263	      668.2869363830	      -16.3403364238	        0.2274794516	        0.0000000000	        0.0408676610	       -0.0250743231	        0.0135683645	        0.0022766414	        0.0000000000	        0.0000000000	        0.0000000000	        0.0000000000	        0.0000000000	        0.0000000000	        0.0000000000	        0.0000000000	        0.0000000000	
        0.1550562323	      -37.2879368560	      642.7434268983	      -16.8364555488	        0.2318484991	        0.0000000000	        0.0408756050	       -0.0175697772	        0.0089347922	        0.0016447097	        0.0000000000	        0.0000000000	        0.0000000000	        0.0000000000	        0.0000000000	        0.0000000000	        0.0000000000	        0.0000000000	        0.0000000000	
        0.1661316775	      -30.6913945500	      621.5797737999	      -17.4507759575	        0.2362315250	        0.0000000000	        0.0409112240	       -0.0123760223	        0.0059685633	        0.0011879736	        0.0000000000	        0.0000000000	        0.0000000000	        0.0000000000	        0.0000000000	        0.0000000000	        0.0000000000	        0.0000000000	        0.0000000000	
        0.1772071226	      -25.0620033796	      604.9273013614	      -17.9523700815	        0.2407355559	        0.0000000000	        0.0409606929	       -0.0113062520	        0.0052111869	        0.0011040089	        0.0000000000	        0.0000000000	        0.0000000000	        0.0000000000	        0.0000000000	        0.0000000000	        0.0000000000	        0.0000000000	        0.0000000000	
        0.1882825678	      -20.5856650215	      593.0012091856	      -18.2757054915	        0.2455743630	        0.0000000000	        0.0409966285	       -0.0138792848	        0.0061499399	        0.0013730601	        0.0000000000	        0.0000000000	        0.0000000000	        0.0000000000	        0.0000000000	        0.0000000000	        0.0000000000	        0.0000000000	        0.0000000000	
        0.1993580130	      -17.3997048333	      585.3944525094	      -18.2718312080	        0.2507265893	        0.0000000000	        0.0409993117	       -0.0220316643	        0.0094318349	        0.0021911252	        0.0000000000	        0.0000000000	        0.0000000000	        0.0000000000	        0.0000000000	        0.0000000000	        0.0000000000	        0.0000000000	        0.0000000000	
        0.2104334581	      -15.5062736911	      581.7490096825	      -18.2453618473	        0.2562201970	        0.0000000000	        0.0409486620	       -0.0420568346	        0.0174724806	        0.0041759280	        0.0000000000	        0.0000000000	        0.0000000000	        0.0000000000	        0.0000000000	        0.0000000000	        0.0000000000	        0.0000000000	        0.0000000000	
        0.2215089033	      -14.4676253371	      580.7830360900	      -18.1684321468	        0.2619239215	        0.0000000000	        0.0408469416	       -0.0886790841	        0.0359000632	        0.0087512164	        0.0000000000	        0.0000000000	        0.0000000000	        0.0000000000	        0.0000000000	        0.0000000000	        0.0000000000	        0.0000000000	        0.0000000000	
        0.2325843485	      -13.4452267612	      581.1499969169	      -18.0715173365	        0.2677518973	        0.0000000000	        0.0407028383	       -0.1901041447	        0.0752789164	        0.0185677952	        0.0000000000	        0.0000000000	        0.0000000000	        0.0000000000	        0.0000000000	        0.0000000000	        0.0000000000	        0.0000000000	        0.0000000000	
        0.2436597936	      -12.2831677387	      581.6027441837	      -17.9019449635	        0.2736062821	        0.0000000000	        0.0405290606	       -0.3849971714	        0.1496794232	        0.0370929031	        0.0000000000	        0.0000000000	        0.0000000000	        0.0000000000	        0.0000000000	        0.0000000000	        0.0000000000	        0.0000000000	        0.0000000000	
        0.2547352388	      -10.9214417305	      581.3723748460	      -17.6500660510	        0.2794183446	        0.0000000000	        0.0403389939	       -0.6968317482	        0.2669383463	        0.0660392555	        0.0000000000	        0.0000000000	        0.0000000000	        0.0000000000	        0.0000000000	        0.0000000000	        0.0000000000	        0.0000000000	        0.0000000000	
        0.2658106840	       -9.1631618800	      579.9105650425	      -17.2737812083	        0.2851605880	        0.0000000000	        0.0401418224	       -1.0930120463	        0.4139012622	        0.1015185474	        0.0000000000	        0.0000000000	        0.0000000000	        0.0000000000	        0.0000000000	        0.0000000000	        0.0000000000	        0.0000000000	        0.0000000000	
        0.2768861291	       -6.9269499654	      576.5424590900	      -16.9682219245	        0.2908003649	        0.0000000000	        0.0399424398	       -1.4750447183	        0.5537436792	        0.1334054905	        0.0000000000	        0.0000000000	        0.0000000000	        0.0000000000	        0.0000000000	        0.0000000000	        0.0000000000	        0.0000000000	        0.0000000000	
        0.2879615743	       -3.9626493160	      571.3983541860	      -16.2238188582	        0.2964010582	        0.0000000000	        0.0397402091	       -1.7332248438	        0.6465257622	        0.1509203642	        0.0000000000	        0.0000000000	        0.0000000000	        0.0000000000	        0.0000000000	        0.0000000000	        0.0000000000	        0.0000000000	        0.0000000000	
        0.2990370195	       -0.0930919613	      565.1014727012	      -14.9093293355	        0.3020764504	        0.0000000000	        0.0395231147	       -1.8125828992	        0.6727961477	        0.1492813995	        0.0000000000	        0.0000000000	        0.0000000000	        0.0000000000	        0.0000000000	        0.0000000000	        0.0000000000	        0.0000000000	        0.0000000000	
        0.3101124646	        4.0956910216	      558.0978835168	      -13.1509481890	        0.3078088212	        0.0000000000	        0.0392864646	       -1.7189400609	        0.6353706932	        0.1303731944	        0.0000000000	        0.0000000000	        0.0000000000	        0.0000000000	        0.0000000000	        0.0000000000	        0.0000000000	        0.0000000000	        0.0000000000	
        0.3211879098	        7.7759421076	      552.4444460603	      -11.0918273375	        0.3135915507	        0.0000000000	        0.0390239431	       -1.4777870179	        0.5443006911	        0.0996988456	        0.0000000000	        0.0000000000	        0.0000000000	        0.0000000000	        0.0000000000	        0.0000000000	        0.0000000000	        0.0000000000	        0.0000000000	
